<svg width="53" height="53" viewBox="0 0 53 53" fill="none" xmlns="http://www.w3.org/2000/svg">
<path d="M10.4731 42.3307H12.844L36.7146 18.4602L34.3437 16.0893L10.4731 39.9599V42.3307ZM43.5578 16.1432L36.6607 9.24602L38.9238 6.98289C39.5345 6.37221 40.2889 6.06686 41.1869 6.06686C42.085 6.06686 42.8394 6.37221 43.4501 6.98289L45.8209 9.35378C46.4316 9.96447 46.737 10.7188 46.737 11.6169C46.737 12.515 46.4316 13.2693 45.8209 13.88L43.5578 16.1432ZM41.2947 18.4063L14.1372 45.5638H7.24005V38.6666L34.3975 11.5091L41.2947 18.4063ZM35.5291 17.2747L34.3437 16.0893L36.7146 18.4602L35.5291 17.2747Z" fill="#304878"/>
</svg>
