<svg width="46" height="46" viewBox="0 0 46 46" fill="none" xmlns="http://www.w3.org/2000/svg">
<path d="M6.67694 37.8324C5.92533 37.8324 5.26767 37.5427 4.70396 36.9634C4.14025 36.384 3.8584 35.7342 3.8584 35.0139V10.5865C3.8584 9.8662 4.14025 9.21637 4.70396 8.637C5.26767 8.05763 5.92533 7.76795 6.67694 7.76795H19.8771L22.6957 10.5865H38.6204C39.3407 10.5865 39.9906 10.8762 40.5699 11.4555C41.1493 12.0349 41.439 12.6847 41.439 13.405V35.0139C41.439 35.7342 41.1493 36.384 40.5699 36.9634C39.9906 37.5427 39.3407 37.8324 38.6204 37.8324H6.67694ZM6.67694 35.0139H38.6204V13.405H21.5213L18.7027 10.5865H6.67694V35.0139Z" fill="#304878"/>
</svg>
