<svg width="53" height="53" viewBox="0 0 53 53" fill="none" xmlns="http://www.w3.org/2000/svg">
<path d="M25.5606 44.9323C24.4206 44.9323 23.4567 44.5396 22.6688 43.7544C21.8809 42.9691 21.487 42.0084 21.487 40.8722H29.6342C29.6342 42.0084 29.2403 42.9691 28.4524 43.7544C27.6644 44.5396 26.7005 44.9323 25.5606 44.9323ZM17.4133 37.7645V34.757H33.7078V37.7645H17.4133ZM17.6648 31.6994C15.452 30.2625 13.7001 28.4664 12.4093 26.311C11.1185 24.1556 10.4731 21.7246 10.4731 19.0179C10.4731 14.9411 11.9651 11.4156 14.949 8.44159C17.933 5.46753 21.4702 3.9805 25.5606 3.9805C29.651 3.9805 33.1881 5.46753 36.1721 8.44159C39.1561 11.4156 40.6481 14.9411 40.6481 19.0179C40.6481 21.7246 40.0111 24.1556 38.737 26.311C37.4629 28.4664 35.7027 30.2625 33.4564 31.6994H17.6648ZM18.7712 28.6919H32.4002C34.0096 27.6226 35.2836 26.2358 36.2224 24.5316C37.1612 22.8273 37.6306 20.9894 37.6306 19.0179C37.6306 15.7097 36.4487 12.8776 34.085 10.5218C31.7213 8.1659 28.8798 6.98797 25.5606 6.98797C22.2413 6.98797 19.3999 8.1659 17.0361 10.5218C14.6724 12.8776 13.4906 15.7097 13.4906 19.0179C13.4906 20.9894 13.96 22.8273 14.8987 24.5316C15.8375 26.2358 17.1283 27.6226 18.7712 28.6919Z" fill="#304878"/>
</svg>
