<svg width="55" height="56" viewBox="0 0 55 56" fill="none" xmlns="http://www.w3.org/2000/svg">
<path d="M6.91888 23.017C6.91888 19.6182 7.67418 16.5026 9.18477 13.6702C10.6954 10.8379 12.7158 8.47755 15.246 6.58931L17.2853 9.30838C15.1705 10.8945 13.4805 12.8677 12.2154 15.228C10.9503 17.5883 10.3177 20.1846 10.3177 23.017H6.91888ZM44.306 23.017C44.306 20.1846 43.6735 17.5883 42.4084 15.228C41.1432 12.8677 39.4533 10.8945 37.3384 9.30838L39.3777 6.58931C41.908 8.47755 43.9284 10.8379 45.439 13.6702C46.9496 16.5026 47.7049 19.6182 47.7049 23.017H44.306ZM9.18477 43.7499V40.351H13.7165V23.1303C13.7165 19.9581 14.6512 17.1163 16.5206 14.6049C18.3899 12.0935 20.8541 10.5169 23.913 9.87485V8.62861C23.913 7.68449 24.2435 6.88199 24.9044 6.22111C25.5653 5.56022 26.3678 5.22978 27.3119 5.22978C28.256 5.22978 29.0585 5.56022 29.7194 6.22111C30.3803 6.88199 30.7107 7.68449 30.7107 8.62861V9.87485C33.7697 10.5169 36.2338 12.0935 38.1032 14.6049C39.9725 17.1163 40.9072 19.9581 40.9072 23.1303V40.351H45.439V43.7499H9.18477ZM27.3119 50.5475C26.0656 50.5475 24.9988 50.1038 24.1113 49.2163C23.2238 48.3289 22.7801 47.262 22.7801 46.0158H31.8437C31.8437 47.262 31.3999 48.3289 30.5124 49.2163C29.625 50.1038 28.5581 50.5475 27.3119 50.5475ZM17.1154 40.351H37.5084V23.1303C37.5084 20.2979 36.517 17.8904 34.5344 15.9078C32.5517 13.9251 30.1442 12.9338 27.3119 12.9338C24.4795 12.9338 22.072 13.9251 20.0894 15.9078C18.1067 17.8904 17.1154 20.2979 17.1154 23.1303V40.351Z" fill="#304878"/>
</svg>
