<svg width="28" height="27" viewBox="0 0 28 27" fill="none" xmlns="http://www.w3.org/2000/svg">
<path d="M25.5192 27L15.6495 17.1375C14.899 17.7875 14.0239 18.2938 13.0242 18.6563C12.0245 19.0188 10.9607 19.2 9.8328 19.2C7.12678 19.2 4.8366 18.2625 2.96227 16.3875C1.08793 14.5125 0.150757 12.25 0.150757 9.6C0.150757 6.95 1.08894 4.6875 2.96531 2.8125C4.84167 0.9375 7.11207 0 9.77651 0C12.441 0 14.7051 0.9375 16.569 2.8125C18.4328 4.6875 19.3647 6.95188 19.3647 9.60563C19.3647 10.6769 19.1896 11.7125 18.8394 12.7125C18.4891 13.7125 17.9637 14.65 17.2632 15.525L27.1704 25.35L25.5192 27ZM9.79528 16.95C11.828 16.95 13.5558 16.2312 14.9787 14.7937C16.4016 13.3562 17.1131 11.625 17.1131 9.6C17.1131 7.575 16.4016 5.84375 14.9787 4.40625C13.5558 2.96875 11.828 2.25 9.79528 2.25C7.74171 2.25 5.99616 2.96875 4.55864 4.40625C3.12114 5.84375 2.4024 7.575 2.4024 9.6C2.4024 11.625 3.12114 13.3562 4.55864 14.7937C5.99616 16.2312 7.74171 16.95 9.79528 16.95Z" fill="black"/>
</svg>
